<?xml version="1.0" standalone="no"?>
<!DOCTYPE svg PUBLIC "-//W3C//DTD SVG 20010904//EN"
 "http://www.w3.org/TR/2001/REC-SVG-20010904/DTD/svg10.dtd">
<svg  
version="1.0" xmlns="http://www.w3.org/2000/svg"
 width="2000.000000pt" height="1247.000000pt" viewBox="0 0 2000.000000 1247.000000"
 preserveAspectRatio="xMidYMid meet">

<g transform="translate(0.000000,1247.000000) scale(0.100000,-0.100000)"
fill="#000000" stroke="none">
<path d="M130 6235 l0 -4745 4745 0 4745 0 0 1640 0 1640 -55 0 -55 0 -2
-1582 -3 -1583 -4632 -3 -4633 -2 0 4635 0 4635 4633 -2 4632 -3 3 -1582 2
-1583 55 0 55 0 0 1640 0 1640 -4745 0 -4745 0 0 -4745z"/>
<path d="M4304 7370 c-225 -59 -399 -235 -455 -460 -8 -30 -13 -100 -13 -155
2 -168 62 -311 183 -430 75 -74 157 -125 253 -156 60 -20 93 -24 188 -24 187
0 308 51 441 185 122 123 179 261 179 435 0 177 -57 314 -184 441 -62 62 -99
90 -156 117 -142 68 -294 84 -436 47z m316 -257 c78 -37 147 -104 186 -181 27
-53 29 -66 29 -167 0 -106 -1 -112 -34 -173 -43 -79 -124 -154 -199 -183 -44
-18 -77 -23 -147 -24 -80 0 -97 4 -155 31 -83 39 -150 106 -192 192 -30 60
-33 75 -33 157 0 80 4 97 31 155 51 108 119 171 227 211 81 30 202 22 287 -18z"/>
<path d="M5469 7366 c-98 -40 -147 -85 -197 -180 l-27 -51 -3 -482 -3 -483
121 0 120 0 0 445 c0 489 0 489 60 520 59 30 125 14 161 -41 18 -28 19 -51 19
-476 l0 -448 120 0 119 0 3 456 3 456 39 35 c35 33 42 35 87 31 59 -6 94 -34
109 -87 6 -21 10 -211 10 -463 l0 -428 121 0 120 0 -3 468 c-3 459 -4 468 -26
524 -51 127 -174 217 -308 226 -91 6 -162 -11 -225 -54 l-50 -33 -41 29 c-87
63 -227 78 -329 36z"/>
<path d="M7142 6903 l3 -478 28 -61 c34 -73 102 -142 177 -181 49 -24 66 -28
150 -28 83 0 102 3 150 27 30 15 64 34 75 42 18 14 24 13 64 -15 182 -121 433
-47 528 156 l28 60 3 478 3 477 -120 0 -120 0 -3 -461 -3 -461 -37 -34 c-42
-38 -88 -45 -137 -20 -58 30 -56 11 -61 510 l-5 461 -120 0 -120 0 -5 -461
c-5 -499 -3 -480 -61 -510 -49 -25 -95 -18 -137 20 l-37 34 -3 461 -3 461
-120 0 -120 0 3 -477z"/>
<path d="M8970 7370 c-183 -26 -338 -158 -396 -340 -15 -48 -18 -109 -22 -457
l-4 -403 121 0 120 0 3 118 3 117 243 3 242 2 0 -120 0 -120 120 0 120 0 0
393 c0 321 -3 404 -15 452 -61 234 -293 388 -535 355z m178 -263 c48 -22 87
-64 113 -122 15 -33 19 -66 19 -187 l0 -148 -246 0 -246 0 4 148 c5 163 15
202 71 260 75 79 181 97 285 49z"/>
<path d="M9737 7374 c-4 -4 -7 -277 -7 -606 l0 -598 125 0 125 0 2 390 3 390
228 -390 229 -390 129 0 129 0 0 605 0 605 -120 0 -120 0 -2 -397 -3 -397
-231 395 -231 394 -124 3 c-69 1 -128 -1 -132 -4z"/>
<path d="M10930 6775 l0 -605 120 0 120 0 0 118 0 118 91 123 c51 67 95 118
100 114 4 -4 63 -111 132 -238 l125 -230 136 -3 c75 -1 136 -1 136 1 0 2 -75
141 -166 308 -92 167 -176 323 -187 346 l-20 42 186 249 c103 137 187 252 187
255 0 4 -60 7 -132 7 l-133 0 -225 -302 -225 -303 -3 303 -2 302 -120 0 -120
0 0 -605z"/>
<path d="M12010 6775 l0 -605 120 0 120 0 0 240 0 240 245 0 245 0 0 -240 0
-240 120 0 120 0 0 605 0 605 -120 0 -120 0 0 -245 0 -245 -245 0 -245 0 0
245 0 245 -120 0 -120 0 0 -605z"/>
<path d="M13210 6775 l0 -605 410 0 410 0 0 120 0 120 -290 0 -290 0 0 120 0
120 195 0 195 0 0 120 0 120 -195 0 -195 0 0 125 0 125 290 0 290 0 0 120 0
120 -410 0 -410 0 0 -605z"/>
<path d="M14210 6776 l0 -606 226 0 c174 0 240 4 288 16 201 52 371 221 432
429 11 40 17 94 17 160 0 85 -5 114 -30 186 -36 103 -85 180 -162 252 -73 67
-127 99 -227 133 -75 26 -92 27 -311 32 l-233 5 0 -607z m409 354 c184 -26
313 -175 312 -360 0 -147 -69 -257 -205 -328 -44 -23 -66 -27 -163 -30 l-113
-4 0 359 c0 198 3 363 7 366 9 10 86 8 162 -3z"/>
<path d="M15340 6775 l0 -605 415 0 415 0 0 120 0 120 -295 0 -295 0 0 120 0
120 200 0 200 0 0 120 0 120 -200 0 -201 0 3 123 3 122 293 3 292 2 0 120 0
120 -415 0 -415 0 0 -605z"/>
<path d="M14841 5823 c-59 -21 -124 -90 -153 -161 -19 -49 -22 -75 -23 -197 0
-110 4 -151 18 -192 43 -122 121 -183 243 -191 131 -8 226 52 275 174 21 53
24 75 24 209 0 144 -1 153 -28 210 -53 113 -117 156 -237 161 -51 3 -89 -2
-119 -13z m173 -144 c31 -37 46 -108 46 -219 0 -116 -15 -184 -50 -223 -52
-59 -132 -33 -162 52 -8 22 -13 88 -13 171 0 83 5 149 13 171 30 86 114 111
166 48z"/>
<path d="M15612 5819 c-23 -12 -51 -34 -63 -50 -25 -35 -39 -29 -39 17 l0 34
-75 0 -75 0 0 -360 0 -360 85 0 85 0 0 261 c0 248 1 263 21 295 11 19 29 39
39 44 30 16 68 12 80 -9 6 -12 10 -128 10 -305 l0 -286 85 0 85 0 0 261 c0
248 1 263 21 295 24 39 47 54 83 54 47 0 51 -22 54 -327 l4 -283 79 0 80 0 -3
308 c-3 294 -4 309 -25 348 -27 50 -63 75 -119 82 -56 6 -125 -27 -161 -78
l-28 -38 -20 36 c-44 78 -121 101 -203 61z"/>
</g>
</svg>
